<svg width="50" height="50" viewBox="0 0 24 24" fill="none" xmlns="http://www.w3.org/2000/svg">
<path d="M8.55681 21.7488H15.443C17.9932 21.7488 19.2684 21.7488 19.8663 21.0613C20.054 20.8455 20.1933 20.5919 20.2746 20.3176C20.5338 19.4441 19.8493 18.3682 18.4804 16.2165L18.3427 16C15 19.5 9 19.5 5.65709 16L5.51933 16.2166C4.15054 18.3683 3.46614 19.4441 3.72526 20.3176C3.80662 20.5919 3.94586 20.8455 4.1336 21.0614C4.73154 21.7488 6.00663 21.7488 8.55681 21.7488Z" fill="green" fill-opacity="0.25"></path>
<path d="M19.5 9.75C19.5 12.0563 18.459 14.1195 16.8212 15.4953C15.5176 16.5904 13.8358 17.25 12 17.25C10.164 17.25 8.48209 16.5903 7.17838 15.495C5.54084 14.1192 4.5 12.0561 4.5 9.75C4.5 5.60786 7.85786 2.25 12 2.25C16.1421 2.25 19.5 5.60786 19.5 9.75Z" fill="green"></path>
</svg>