<svg width="120px" height="156px" viewBox="0 0 120 156" style="enable-background:new 0 0 120 156;" xml:space="preserve">
											<path class="fill-primary" d="M46.8,18.5c-0.3,0-0.6,0.1-0.8,0.2c-0.3,0.1-0.5,0.3-0.7,0.5c-0.2,0.2-0.3,0.5-0.4,0.8 c-0.1,0.3-0.1,0.6-0.1,0.9c0.1,1.3,0.2,2.7,0.2,4c0,0.2,0.1,0.4,0.2,0.6c0.1,0.2,0.2,0.4,0.4,0.5c0.2,0.1,0.4,0.2,0.6,0.3 c0.2,0.1,0.4,0.1,0.6,0.1c3.5-0.2,4.9-1.5,4.8-4.2C51.4,19.4,49.7,18.5,46.8,18.5z"></path>
											<path class="fill-primary" d="M47.3,29.7c-0.4,0.1-0.8,0.3-1.1,0.6c-0.3,0.3-0.4,0.7-0.4,1.2c0.1,1.6,0.2,3,0.4,4.6c0,0.2,0.1,0.5,0.2,0.7 c1.6-2.2,3.6-4.2,5.8-5.8C51.4,29.9,49.7,29.4,47.3,29.7z"></path>
											<path class="fill-primary" d="M37.8,11.9c-6.2,2.3-11.1,6.3-13.3,11.7c-1.2,4.5-0.9,9.2,0.8,13.5c1.6,4,4.4,7.5,8,10c2.9-0.7,5.8-1,8.8-0.9 c0.4-1.6,0.9-3.1,1.5-4.6l0.4-0.7l-4.3,0.6c-0.1,0-0.2,0-0.3,0c-0.1,0-0.2-0.1-0.3-0.1c-0.1-0.1-0.1-0.2-0.2-0.3 c0-0.1-0.1-0.2,0-0.3c0-0.4,0.2-0.8,0.6-0.8c0.8-0.2,1.4-0.6,1.9-1.2c0.5-0.6,0.7-1.4,0.7-2.2c-0.1-2.2-1.1-13.1-1.3-15.5 c-0.1-0.8-0.4-1.5-1-2.1c-0.6-0.6-1.3-0.9-2.1-0.9c-0.5,0-0.7-0.4-0.8-0.8c0-0.2,0.1-0.4,0.2-0.6c0.1-0.2,0.3-0.2,0.5-0.3l6.2-0.1 h0.7L44.1,14c-0.1-0.3,0-0.5,0-0.8c0.1-0.3,0.2-0.5,0.3-0.7c0.2-0.2,0.4-0.4,0.6-0.5c0.2-0.1,0.5-0.2,0.8-0.2c1.1,0,1.9,1.1,2,2.3 l0.1,2.2c4.1,0.2,6.6,2.5,6.8,5.6c0.1,0.9-0.1,1.8-0.5,2.6c-0.4,0.8-1,1.5-1.7,2c-0.1,0.1-0.2,0.2-0.3,0.4s-0.1,0.3-0.1,0.5 c0,0.2,0.1,0.3,0.2,0.5c0.1,0.1,0.2,0.2,0.4,0.3c0.8,0.2,1.5,0.6,2.1,1.2c1.1-0.6,2.2-1.1,3.3-1.5c2.4-0.8,4.9-1.4,7.4-1.8 c-0.1-0.6-0.4-1.2-0.5-1.6C61.3,13.4,49.1,7.8,37.8,11.9z"></path>
											<path class="fill-primary" d="M74.7,61.3c3.7,0,5.6-1.3,5.8-3.9c0.2-2.7-1.4-4.2-5.5-4.4c-0.4,0-0.9,0.1-1.2,0.5c-0.3,0.3-0.5,0.7-0.5,1.2 c-0.1,1.6-0.2,3.3-0.2,4.8c0,0.2,0,0.5,0,0.7c0.1,0.2,0.2,0.4,0.3,0.6c0.2,0.2,0.4,0.3,0.6,0.4C74.2,61.2,74.4,61.3,74.7,61.3z"></path>
											<path class="fill-primary" d="M75,49.4c3.7,0.2,5.4-0.8,5.5-3.6c0.2-2.9-1.3-4.1-4.4-4.4c-0.3,0-0.6,0-0.9,0.1c-0.3,0.1-0.6,0.2-0.8,0.4 c-0.2,0.2-0.4,0.4-0.6,0.7c-0.1,0.3-0.2,0.6-0.2,0.9c-0.1,1.4-0.2,2.8-0.2,4.1c0,0.2,0,0.5,0.1,0.7c0.1,0.2,0.2,0.4,0.3,0.6 c0.2,0.2,0.3,0.3,0.5,0.4C74.6,49.4,74.8,49.4,75,49.4z"></path>
											<path class="fill-primary" d="M92.1,45.9c-4-10.9-16.2-16.5-27.5-12.4c-3.1,1.1-5.8,2.9-8.2,5.2c-2.3,2.3-4.1,5-5.3,8.1c0,0.2,0,0.3-0.1,0.5 c1.7,0.4,3.3,0.9,4.9,1.6c5.3,2.4,9.6,6.7,11.9,12.1c0.4-0.5,0.6-1,0.6-1.6c0.1-2.3,0.8-13.7,0.9-16.2c0-0.8-0.2-1.7-0.7-2.3 c-0.5-0.7-1.3-1.1-2.1-1.3c-0.2,0-0.4-0.2-0.5-0.3c-0.1-0.2-0.2-0.4-0.2-0.6c0-0.1,0-0.2,0.1-0.3c0.1-0.1,0.1-0.2,0.2-0.3 c0.1-0.1,0.2-0.1,0.3-0.1c0.1,0,0.2,0,0.3,0l7.3,0.9l0.1-2.2c0.1-1.3,1.1-2.3,2.1-2.1c1.1,0.1,1.9,1.4,1.8,2.7l-0.1,2.2 c4.2,0.8,6.4,3.5,6.2,6.8c0,1-0.4,1.9-0.9,2.7c-0.5,0.8-1.3,1.4-2.2,1.9c-0.2,0.1-0.3,0.2-0.4,0.4c-0.1,0.2-0.1,0.3-0.1,0.5 c0,0.2,0,0.4,0.1,0.5c0.1,0.2,0.2,0.3,0.4,0.4c2.5,1.3,3.4,3.2,3.3,5.4c-0.2,2.9-2.6,6-8.1,6.3l-0.1,2.5c-0.1,1.2-0.9,2.2-2,2.2 c-0.3,0-0.5-0.1-0.8-0.2c-0.2-0.1-0.4-0.3-0.6-0.5c-0.2-0.2-0.3-0.5-0.3-0.7c-0.1-0.3-0.1-0.5,0-0.8l0.1-2.5H69 c0.7,2.3,1,4.8,0.9,7.3c5.9-1.4,11.8-2.4,17.8-3.2C93,62,94.9,53.5,92.1,45.9z"></path>
											<path class="fill-primary" d="M46.8,63.8c-1.8-2.2-3.6-2.1-6.2-0.4c-0.2,0.2-0.5,0.4-0.6,0.7c-0.2,0.3-0.2,0.5-0.3,0.8c0,0.3,0,0.6,0.1,0.9 c0.1,0.3,0.2,0.5,0.4,0.8c0.8,1.1,1.8,2.2,2.6,3.3c0.3,0.4,0.7,0.6,1.2,0.7s0.9,0,1.3-0.3C48.1,67.9,48.6,66.1,46.8,63.8z"></path>
											<path class="fill-primary" d="M54.5,72.4c-1.6-2.1-3.9-2.2-7,0.4c-0.3,0.3-0.6,0.7-0.6,1.2c0,0.5,0.1,0.9,0.4,1.3c0.4,0.5,0.7,0.8,1.1,1.3 c2.3-0.6,4.7-1.3,7.1-1.9C55.4,73.8,55,73,54.5,72.4z"></path>
											<path class="fill-primary" d="M65.4,66.1c-4-10.9-16.2-16.5-27.5-12.4c-11.6,4.2-17.7,17-13.7,28.3c0.2,0.4,0.4,0.8,0.6,1.2 c4.9-1.4,11.6-3.4,18.8-5.4c-0.5-0.5-5.4-6.8-6.9-8.7c-0.6-0.6-1.3-1.1-2.1-1.2c-0.8-0.1-1.7,0-2.4,0.4c-0.2,0.1-0.4,0.1-0.6,0.1 c-0.2,0-0.4-0.2-0.5-0.3c-0.1-0.1-0.1-0.2-0.2-0.3c0-0.1,0-0.2,0-0.3c0-0.1,0-0.2,0.1-0.3s0.1-0.2,0.2-0.2l6-4.2l-1.4-1.8 c-0.8-1.1-0.8-2.5,0.1-3c0.5-0.3,1.1-0.3,1.7-0.2c0.6,0.2,1,0.5,1.4,1l1.4,1.8c3.7-2.2,7.1-1.8,9.1,0.9c0.6,0.7,1,1.6,1.1,2.6 c0.1,0.9,0,1.9-0.3,2.8c-0.1,0.2-0.1,0.4,0,0.5c0,0.2,0.1,0.3,0.2,0.5c0.1,0.1,0.3,0.2,0.4,0.3c0.2,0.1,0.4,0.1,0.5,0 c1.1-0.4,2.2-0.4,3.3-0.1c1.1,0.3,2.1,0.9,2.8,1.8c0.9,1.1,1.3,2.5,1.3,3.9c2.6-0.7,5.1-1.3,7.7-1.9C66.5,69.8,66.1,67.9,65.4,66.1z "></path>
											<path class="fill-mode" d="M113.8,123.8l-3-12.5c1.1-0.4,2-1.1,2.7-2c0.3-0.5,0.6-1,0.7-1.6c0.1-0.6,0.1-1.2,0-1.8l-4.3-17.8 c-0.4-1.5-2.1-2.8-5.3-2.5l-2.9-12.1c-1.6-6.7-2.3-6.8-9.1-6.1h-0.4c1.8-2.1,3.3-4.4,4.4-6.9c2.6-5.9,2.8-12.5,0.6-18.5 c-1.1-3-2.7-5.7-4.9-8c-2.2-2.3-4.7-4.2-7.6-5.5c-2.1-0.9-4.2-1.5-6.4-1.9c-2.8-0.7-5.7-1-8.5-0.9c-0.1-2.1-0.6-4.1-1.3-6.1 c-1.1-2.9-2.7-5.5-4.7-7.7c-2.1-2.2-4.6-4-7.3-5.3c-2-0.9-4.1-1.5-6.2-1.9c-6.3-1.5-12.9-1.2-19,0.9c-6.3,2.3-11.3,7.1-14.2,13.1 c-1.3,2.9-2.1,6-2.2,9.2c-0.1,3.2,0.4,6.3,1.6,9.3c1.9,4.7,5.7,8.8,10.9,11.6c-5.4,2.7-9.7,7.2-12.3,12.6c-0.9,2-1.5,4.1-1.9,6.2 C3.4,71.2,0.8,76.8,1.7,81l14.8,61.5c0.4,1.6,1.2,3.1,2.2,4.4c1,1.3,2.3,2.4,3.8,3.1c2.7,1.4,5.8,2.2,8.9,2.1c3.4,0,6.8-0.7,10-1.9 c15.2-5.3,47.8-13.1,63.3-15.2c5-0.7,7.5-1.6,8.7-3.4C115,129.6,114.5,126.8,113.8,123.8z M112.4,106.3c0.1,0.3,0.1,0.7,0,1 c-0.1,0.3-0.2,0.7-0.5,0.9l-0.4,0.4c-0.9,0.8-2,1.3-3.2,1.4c-0.4,0-0.7,0.1-1.1,0.1c-5.3,0.9-10.6,2.2-15.7,3.9 c-1.2,0.5-1.4,0.4-1.5,0.4c-0.4-0.4-4.2-16.8-4.2-16.9c1.5-1.5,14.8-4.1,16.7-4.4l1.8-0.4c0.5-0.1,0.9-0.2,1.4-0.2 c0.6-0.1,1.3-0.3,1.9-0.6c0.4-0.2,0.8-0.5,1.2-0.8L112.4,106.3z M18.6,19.7c1.2-2.8,3.1-5.3,5.3-7.4c2.3-2.1,4.9-3.7,7.8-4.7 c2.3-0.8,4.7-1.4,7.1-1.6C38.6,6,38.5,6,38.3,6.1C32,8.5,26.9,13.2,24.1,19.2c-1.3,2.9-2.1,6-2.2,9.2c-0.1,3.2,0.4,6.3,1.6,9.3 c1.5,3.9,4.1,7.4,7.5,9.9c-0.5,0.2-1,0.4-1.5,0.6c-5.4-2.7-9.5-6.8-11.4-11.4c-1.1-2.8-1.6-5.7-1.5-8.7 C16.7,25.3,17.4,22.4,18.6,19.7z M89.4,67.7c-0.5,0-1.1,0.1-1.5,0.1c-5.3,0.7-11.4,1.8-17.8,3.2c0-2.5-0.3-4.9-0.9-7.3 c-0.1-0.5-0.4-1.1-0.5-1.5c-0.2-0.5-0.4-1-0.6-1.5c-2.4-5.3-6.6-9.6-11.9-12.1c-1.6-0.7-3.2-1.3-4.9-1.6c0-0.2,0-0.3,0.1-0.5 c0.3-1.5,0.9-3,1.5-4.4c1.3-2.9,3.2-5.6,5.6-7.8c2.4-2.2,5.1-3.9,8.1-5c2.5-0.9,5.2-1.4,8-1.4c4.6,0,9.1,1.3,12.8,3.9 c3.8,2.6,6.6,6.3,8.2,10.6c1.5,4.4,1.7,9.1,0.6,13.6C95.1,60.5,92.8,64.5,89.4,67.7L89.4,67.7z M66.7,71.9c-2.6,0.6-5.1,1.2-7.7,1.9 c-1.2,0.2-2.3,0.6-3.4,0.8c-2.5,0.6-4.8,1.3-7.1,1.9c-1.5,0.5-3,0.8-4.6,1.3c-7.3,2-13.9,4-18.8,5.4c-0.2-0.4-0.4-0.8-0.6-1.2 l-0.7-1.4c-1.1-2.9-1.6-5.9-1.6-9c0.1-3.1,0.8-6.1,2-8.9c1.3-2.9,3.2-5.6,5.6-7.8c2.4-2.2,5.1-3.9,8.1-5c2.6-0.9,5.2-1.4,8-1.4 c4.6,0,9.1,1.3,12.8,3.9c3.8,2.6,6.6,6.3,8.2,10.6c1,2.7,1.5,5.6,1.4,8.5C67.8,71.7,67.2,71.8,66.7,71.9L66.7,71.9z M65.9,27.9 c-3.3,1.2-6.2,3-8.8,5.3c-2.5,2.4-4.6,5.2-6,8.3c-0.7,1.7-1.3,3.5-1.8,5.3c-1.8-0.5-3.6-0.7-5.5-0.8c0.4-1.4,0.8-2.7,1.4-4 c1.3-2.9,3.2-5.6,5.6-7.8c2.4-2.2,5.1-3.9,8.1-5c2.6-1,5.2-1.5,8-1.8L65.9,27.9z M65.8,26c-2.5,0.3-5,0.9-7.4,1.8 c-1.1,0.4-2.2,0.9-3.3,1.5c-1,0.5-1.9,1.1-2.8,1.8c-2.3,1.6-4.2,3.6-5.8,5.8c-0.9,1.3-1.7,2.6-2.3,4c-0.1,0.2-0.2,0.5-0.4,0.7 c-0.7,1.5-1.2,3-1.5,4.6c-3,0-5.9,0.3-8.8,0.9c-3.7-2.3-6.5-5.8-8-10c-1.7-4.3-2-9-0.8-13.5c0.3-1.2,0.7-2.5,1.3-3.6 c1.2-2.8,3.1-5.3,5.3-7.4c2.3-2.1,4.9-3.7,7.8-4.7c5.3-2,11.2-1.9,16.4,0.5c5.2,2.3,9.3,6.6,11.3,11.9c0.7,1.8,1.1,3.7,1.2,5.6 C67.2,25.8,66.5,25.9,65.8,26L65.8,26z M38.4,47.9l-1.1,0.4c-3.3,1.2-6.2,3-8.8,5.3C26,56,24,58.8,22.6,62c-1.4,3-2.2,6.3-2.3,9.6 c-0.1,3.3,0.5,6.6,1.7,9.7c0.3,0.8,0.7,1.7,1.2,2.5c-1.4,0.4-2.6,0.7-3.6,1.1c-0.2,0.1-0.5,0.1-0.7,0.2c-1.1-1.4-2-2.9-2.7-4.6 c-1.1-2.9-1.6-5.9-1.6-9c0.1-3.1,0.8-6.1,2-8.9c1.3-2.9,3.2-5.6,5.6-7.8c2.4-2.2,5.1-3.9,8.1-5C32.9,48.8,35.6,48.1,38.4,47.9z  M13,69.8c-0.1,1.5-0.1,3,0,4.6c-1.9,0.8-3.6,2.1-4.9,3.7c-1.3,1.6-2.3,3.4-2.8,5.5C4.4,82.7,1,73.7,13,69.8z M112.2,130.6 c-0.8,1.3-3.2,2.1-7.5,2.7c-15.6,2.1-48.3,10.1-63.7,15.3c-6.8,2.3-13,2.3-17.6-0.1c-2.7-1.5-4.6-3.7-5.1-6.3L4.7,85.4 c0.2,0.8,2.8,1.4,3.4,1.6c1.6,0.4,3.3,0.6,4.9,0.6c2.4,0,4.7-0.4,6.9-1.2c1.4-0.4,3.2-0.9,5-1.5c15.3-4.4,47.2-13.8,65.7-15.6 c1.9-0.2,5.6-1.3,7.4-0.1c0.7,0.5,1.2,1.8,1.9,4.7l4.1,17.1c-6.1,1.2-12.2,2.1-17.9,4.4c-2,0.8-2.2,1.3-1.8,3.5l3.5,14.5 c0,0.5,0.2,1,0.4,1.4c0.2,0.4,0.6,0.8,1,1.1c0.3,0.1,0.7,0.2,1.1,0.2c1.5,0,3-0.8,4.6-1.3c1.6-0.5,3.3-0.9,4.9-1.3 c2.9-0.7,6-1.4,9-1.9h0.4l3,12.4C112.8,127.4,113.1,129.4,112.2,130.6z"></path>
											<path class="fill-mode" d="M101.6,102.2c-0.1-0.6-0.4-1.1-0.8-1.6s-0.8-0.8-1.3-1.1c-1.1-0.6-2.4-0.8-3.6-0.5c-1.2,0.3-2.3,1-3,2.1 c-0.3,0.5-0.6,1-0.7,1.6c-0.1,0.6-0.1,1.2,0.1,1.7c0.6,2.5,3.4,3.7,5.7,3.2C100.2,107,102.2,104.7,101.6,102.2z"></path>
											<path class="fill-mode" d="M95.6,87.4c0.1,0.2,0.2,0.4,0.4,0.5c0.2,0.1,0.4,0.1,0.6,0.1c0.1,0,0.2-0.1,0.3-0.1c0.1-0.1,0.2-0.2,0.2-0.3 c0.1-0.1,0.1-0.2,0.1-0.3c0-0.1,0-0.2,0-0.3c-0.5-3.1-1.5-6.1-2.8-9c-0.6-1.1-2.1-0.1-1.5,0.9C94.2,81.5,95.1,84.4,95.6,87.4z"></path>
											<path class="fill-mode" d="M86.5,75.2c-3.9,0.2-7.5,1.4-11.2,2.3c-1.1,0.2-0.6,2,0.5,1.6c3.5-0.9,7.1-2.1,10.8-2.3c0.1,0,0.2,0,0.4-0.1 s0.2-0.1,0.3-0.2c0.1-0.1,0.2-0.2,0.2-0.3c0-0.1,0.1-0.2,0.1-0.4c-0.1-0.2-0.2-0.4-0.4-0.5C86.9,75.3,86.7,75.2,86.5,75.2z"></path>
											<path class="fill-mode" d="M55.6,85.1C59.3,84.1,63,83,66.7,82c1.1-0.4,0.6-2-0.5-1.6c-3.6,1.1-7.4,2.1-11.1,3.2 C54.1,83.7,54.5,85.4,55.6,85.1z"></path>
											<path class="fill-mode" d="M34.5,91.5c3.5-1.2,7-2.1,10.5-3.2c1.1-0.4,0.6-2-0.5-1.6c-3.5,1.1-7,2-10.5,3.2c-0.1,0-0.2,0.1-0.3,0.1 c-0.1,0.1-0.2,0.2-0.2,0.3c-0.1,0.1-0.1,0.2-0.1,0.3c0,0.1,0,0.2,0,0.3c0,0.1,0.1,0.2,0.2,0.3c0.1,0.1,0.2,0.2,0.3,0.2 c0.1,0.1,0.2,0.1,0.3,0.1C34.3,91.5,34.4,91.5,34.5,91.5z"></path>
											<path class="fill-mode" d="M23.5,92.6c-1.9,0.5-3.8,0.7-5.7,0.8c-2.1,0.1-4.2,0-6.2-0.5c-1.1-0.2-1.5,1.4-0.5,1.6c2.6,0.6,5.3,0.7,8,0.5 c1.7-0.2,3.3-0.4,4.9-0.8C25.1,94.2,24.7,92.4,23.5,92.6z"></path>
											<path class="fill-mode" d="M103.8,117.6c0.3,1.3,0.6,2.6,0.8,4c0.2,2.3-0.5,2.9-0.8,3.2c-0.8,0.5-1.6,0.8-2.5,0.9 c-1.2,0.3-2.5,0.5-3.7,0.6c-0.2,0-0.5,0.1-0.7,0.3c-0.2,0.2-0.3,0.4-0.3,0.7s0.1,0.5,0.3,0.7c0.2,0.2,0.4,0.3,0.7,0.3 c2.2-0.2,4.6-0.5,6.6-1.4c1.8-0.9,2.3-2.6,2.3-4.4c-0.1-1.8-0.4-3.5-0.9-5.1C105.3,116,103.6,116.5,103.8,117.6z"></path>
											<path class="fill-mode" d="M88.2,127.5c-3.4,0.4-6.8,0.9-10.2,1.6c-0.2,0.1-0.4,0.2-0.5,0.4c-0.1,0.2-0.1,0.4-0.1,0.6 c0,0.1,0.1,0.2,0.1,0.3c0.1,0.1,0.2,0.2,0.3,0.2c0.1,0.1,0.2,0.1,0.3,0.1c0.1,0,0.2,0,0.3,0c3.2-0.7,6.5-1.2,9.7-1.5 c0.1,0,0.2,0,0.4-0.1c0.1,0,0.2-0.1,0.3-0.2c0.1-0.1,0.2-0.2,0.2-0.3c0-0.1,0.1-0.2,0.1-0.4c0-0.2-0.1-0.4-0.3-0.6 C88.7,127.6,88.5,127.5,88.2,127.5z"></path>
											<path class="fill-mode" d="M68.9,131.4c-3,0.8-6.2,1.8-9.2,2.7c-1.1,0.4-0.6,2,0.5,1.6c3-0.9,6.1-1.9,9.2-2.7 C70.4,132.8,70,131,68.9,131.4z"></path>
											<path class="fill-mode" d="M50.3,137c-3.6,1.2-7.2,2.1-10.9,2.9c-0.2,0.1-0.4,0.2-0.5,0.4c-0.1,0.2-0.1,0.4-0.1,0.6c0,0.1,0.1,0.2,0.1,0.3 s0.2,0.2,0.3,0.2c0.1,0.1,0.2,0.1,0.3,0.1c0.1,0,0.2,0,0.3,0c3.7-0.8,7.3-1.7,10.9-2.9c0.1,0,0.2-0.1,0.3-0.1 c0.1-0.1,0.2-0.2,0.3-0.3c0.1-0.1,0.1-0.2,0.1-0.3c0-0.1,0-0.2,0-0.4c0-0.1-0.1-0.2-0.2-0.3c-0.1-0.1-0.2-0.2-0.3-0.2 c-0.1-0.1-0.2-0.1-0.3-0.1C50.5,136.9,50.4,137,50.3,137z"></path>
											<path class="fill-mode" d="M29.9,140.9c-1.6,0.4-3.3,0.3-4.9-0.1c-1.6-0.4-3.1-1.2-4.3-2.3c-0.2-0.2-0.4-0.3-0.6-0.3s-0.5,0.1-0.6,0.3 c-0.2,0.2-0.3,0.4-0.3,0.6c0,0.2,0.1,0.5,0.3,0.6c1.5,1.3,3.2,2.2,5.1,2.7c1.9,0.4,3.9,0.4,5.8,0c0.2-0.1,0.4-0.2,0.5-0.4 c0.1-0.2,0.1-0.4,0.1-0.6C31,141,30.4,140.7,29.9,140.9z"></path>
										</svg>