<svg width="270" height="257" viewBox="0 0 270 257" fill="none" xmlns="http://www.w3.org/2000/svg">
<g opacity="0.2" clip-path="url(#clip0_29_1494)">
<path d="M103.343 147.898C102.038 147.549 100.998 146.901 100.346 145.988C99.1801 144.331 99.5402 142.003 101.342 139.612L120.854 113.762C123.516 110.231 128.869 107.29 133.819 106.639C136.638 106.261 139.005 106.684 140.488 107.846L158.81 122.087C160.055 123.053 160.558 124.427 160.284 126.041C159.591 129.809 154.693 134.006 148.858 135.79L111.03 147.375C108.066 148.294 105.362 148.439 103.343 147.898ZM138.113 107.553C136.931 107.236 135.498 107.168 133.905 107.4C129.147 108.023 124.012 110.839 121.471 114.217L101.959 140.067C100.359 142.196 99.9995 144.129 100.996 145.53C102.427 147.574 106.265 148.022 110.776 146.648L148.587 135.032C154.912 133.089 158.92 128.865 159.483 125.879C159.733 124.549 159.337 123.467 158.305 122.69L139.983 108.449C139.483 108.051 138.851 107.75 138.113 107.553Z" fill="#09B850"/>
<path d="M101.655 151.242C100.424 150.912 99.4203 150.327 98.7234 149.481C97.3788 147.803 97.5354 145.446 99.2353 142.844L117.863 114.094C122.177 107.447 133.69 103.178 138.757 106.328L160.527 119.911C162.02 120.839 162.72 122.265 162.543 124.01C162.155 128.018 157.21 132.782 151.052 135.086L110.661 150.228C107.22 151.547 104.019 151.875 101.655 151.242ZM136.779 106.325C131.535 104.92 122.159 108.892 118.517 114.507L99.8899 143.256C98.4053 145.547 98.1982 147.6 99.3313 148.985C101.076 151.139 105.53 151.357 110.4 149.526L150.792 134.384C157.51 131.861 161.471 127.123 161.764 123.96C161.918 122.498 161.35 121.371 160.108 120.59L138.338 107.007C137.891 106.702 137.37 106.484 136.779 106.325Z" fill="#09B850"/>
<path d="M100.132 154.866C98.9746 154.556 98.0311 154.04 97.3391 153.274C95.8024 151.624 95.7998 149.172 97.3111 146.387L114.628 114.65C118.619 107.337 130.807 101.931 136.724 104.86L162.207 117.488C163.979 118.358 164.901 119.844 164.863 121.758C164.767 126.055 159.988 131.286 153.454 134.201L110.679 153.317C106.7 155.071 102.889 155.605 100.132 154.866ZM135.199 105.137C129.34 103.567 118.826 108.632 115.314 115.045L97.997 146.782C96.6518 149.242 96.635 151.372 97.9223 152.772C99.6837 154.667 104.198 155.349 110.363 152.626L153.156 133.541C160.169 130.412 164.034 125.147 164.114 121.795C164.14 120.22 163.363 118.984 161.873 118.242L136.39 105.614C136.029 105.386 135.617 105.249 135.199 105.137Z" fill="#09B850"/>
<path d="M98.9081 158.836C97.8495 158.552 96.9487 158.073 96.2303 157.406C94.5015 155.783 94.2593 153.24 95.6 150.305L111.143 115.536C114.72 107.506 127.521 100.892 134.34 103.51L163.832 114.866C165.939 115.668 167.113 117.195 167.214 119.278C167.461 123.773 162.759 129.603 156.043 133.102L110.976 156.534C106.474 158.86 102.035 159.673 98.9081 158.836ZM133.337 104.006C126.788 102.251 115.098 108.556 111.824 115.85L96.281 150.619C95.1064 153.23 95.2734 155.463 96.7529 156.835C98.8589 158.822 103.982 159.299 110.611 155.829L155.653 132.391C162.917 128.618 166.636 122.813 166.416 119.301C166.303 117.558 165.304 116.262 163.535 115.577L134.044 104.222C133.829 104.138 133.583 104.072 133.337 104.006Z" fill="#09B850"/>
<path d="M97.9774 163.094C97.0173 162.837 96.1525 162.42 95.4389 161.834C93.4869 160.256 93.0231 157.654 94.0948 154.541L107.353 116.682C110.403 107.957 123.734 99.957 131.517 102.227L165.259 111.901C167.707 112.609 169.183 114.191 169.473 116.457C170.088 121.155 165.549 127.557 158.662 131.695L111.687 159.887C106.654 162.915 101.523 164.044 97.9774 163.094ZM131.189 102.956C123.853 100.991 110.952 108.763 108.096 116.96L94.8382 154.819C93.8522 157.613 94.2473 159.88 95.9369 161.256C98.9257 163.691 105.245 162.853 111.308 159.232L158.308 131.047C165.819 126.549 169.248 120.35 168.754 116.58C168.508 114.643 167.239 113.275 165.104 112.676L131.362 103.002C131.288 102.983 131.239 102.969 131.189 102.956Z" fill="#09B850"/>
<path d="M97.4087 167.686C96.547 167.455 95.7675 167.114 95.0769 166.639C92.8768 165.101 92.1357 162.451 92.9629 159.166L103.372 118.251C105.766 108.823 119.529 99.4096 128.353 101.141L166.587 108.724C169.415 109.297 171.242 110.946 171.745 113.401C172.763 118.366 168.551 125.224 161.479 130.051L112.836 163.384C107.277 167.193 101.446 168.768 97.4087 167.686ZM167.011 109.602C166.839 109.556 166.642 109.503 166.438 109.475L128.205 101.892C119.886 100.243 106.398 109.519 104.117 118.424L93.7081 159.34C92.9599 162.329 93.5586 164.624 95.5207 165.967C99.0775 168.449 106.03 167.123 112.402 162.741L161.045 129.407C168.642 124.194 171.814 117.479 170.995 113.543C170.577 111.559 169.202 110.189 167.011 109.602Z" fill="#09B850"/>
<path d="M97.1729 172.5C96.4589 172.308 95.796 172.025 95.202 171.682C92.7409 170.231 91.6731 167.52 92.2001 164.076L99.117 120.142C100.712 110.052 114.823 99.0453 124.702 100.19L167.682 105.222C170.958 105.599 173.168 107.298 173.921 110.004C175.369 115.137 171.45 122.574 164.385 128.062L114.506 166.995C108.506 171.661 101.752 173.727 97.1729 172.5ZM167.626 105.628L167.576 106.01L124.596 100.978C115.229 99.8922 101.382 110.706 99.8754 120.267L92.9584 164.2C92.4547 167.36 93.3554 169.711 95.5655 171.014C99.7592 173.483 107.339 171.586 113.984 166.381L163.882 127.479C170.69 122.16 174.517 115.066 173.144 110.244C172.473 107.823 170.537 106.382 167.545 106.028L167.626 105.628Z" fill="#09B850"/>
<path d="M97.4669 177.613C96.9253 177.468 96.3969 177.273 95.9063 177.036C93.1282 175.686 91.696 172.956 91.8981 169.346L94.6283 122.524C95.2459 111.75 109.563 99.0852 120.579 99.5325L168.493 101.511C172.249 101.674 174.929 103.393 175.986 106.339C177.871 111.615 174.325 119.628 167.367 125.803L116.722 170.646C110.322 176.312 102.711 179.018 97.4669 177.613ZM168.475 101.875L168.45 102.264L120.535 100.285C110.095 99.8602 96.0087 112.35 95.413 122.55L92.6828 169.372C92.4793 172.691 93.7132 175.078 96.2337 176.307C101.14 178.676 109.349 176.104 116.169 170.05L166.796 125.176C173.541 119.207 176.988 111.563 175.192 106.548C174.222 103.863 171.879 102.366 168.407 102.226L168.475 101.875Z" fill="#09B850"/>
<path d="M98.329 182.958C97.9844 182.866 97.6463 182.749 97.3328 182.638C94.1754 181.423 92.3542 178.668 92.1755 174.904L89.9932 125.342C89.7682 120.273 92.4694 114.328 97.4356 108.99C102.924 103.08 110.035 99.291 115.991 99.1208L168.967 97.4734C173.278 97.3369 176.434 99.0523 177.857 102.307C180.257 107.827 177.25 116.194 170.353 123.124L119.559 174.333C112.825 181.148 104.287 184.554 98.329 182.958ZM172.33 98.6117C171.32 98.3412 170.216 98.2297 168.991 98.2706L115.997 99.8868C110.251 100.061 103.328 103.741 97.9768 109.53C93.2308 114.637 90.5428 120.534 90.7418 125.305L92.9487 174.874C93.0948 178.366 94.7112 180.802 97.6044 181.92C103.299 184.105 112.083 180.765 119.018 173.793L169.812 122.584C176.357 115.981 179.38 107.75 177.141 102.616C176.26 100.587 174.595 99.2186 172.33 98.6117Z" fill="#09B850"/>
<path d="M99.7961 188.517C99.7223 188.497 99.6484 188.478 99.5746 188.458C96 187.421 93.7026 184.67 93.094 180.738L85.1732 128.663C84.4048 123.554 86.5548 117.303 91.0782 111.451C96.5105 104.471 104.095 99.7024 110.875 99.0151L169.065 93.1762C173.975 92.6732 177.687 94.3795 179.532 97.9316C182.456 103.565 179.99 112.473 173.391 120.063L123.116 178.001C116.133 186.041 106.591 190.338 99.7961 188.517ZM169.107 93.6093L169.138 93.9866L110.948 99.8254C104.36 100.485 96.9942 105.128 91.6818 111.955C87.2916 117.606 85.1944 123.66 85.935 128.577L93.8558 180.652C94.4253 184.337 96.4619 186.78 99.7903 187.751C106.331 189.635 115.661 185.44 122.53 177.528L172.792 119.639C179.195 112.287 181.618 103.736 178.832 98.3768C177.143 95.1299 173.682 93.5699 169.125 94.0358L169.107 93.6093Z" fill="#09B850"/>
<path d="M101.976 194.268C98.3324 193.291 95.7854 190.685 94.7547 186.85L80.2431 132.588C78.8755 127.45 80.4003 120.873 84.4744 114.531C89.6713 106.461 97.6192 100.63 105.238 99.376L168.7 88.7289C174.254 87.7922 178.616 89.4354 180.982 93.3115C184.514 99.1345 182.735 108.332 176.402 116.705L127.452 181.614C120.619 190.67 110.467 195.963 102.795 194.461C102.524 194.388 102.247 194.34 101.976 194.268ZM174.817 89.6301C173.069 89.1617 171.055 89.0965 168.817 89.4721L105.355 100.119C97.9534 101.352 90.206 107.026 85.129 114.944C81.1881 121.084 79.6734 127.427 80.9886 132.366L95.5003 186.628C96.5489 190.494 99.1109 192.947 102.925 193.679C110.326 195.108 120.148 189.964 126.817 181.128L175.767 116.218C181.792 108.211 183.635 99.1628 180.295 93.7074C179.056 91.6356 177.181 90.2633 174.817 89.6301Z" fill="#09B850"/>
<path d="M104.944 200.124C101.35 199.161 98.6517 196.725 97.2466 193.106L75.2161 137.066C73.1755 131.88 74.0686 125.002 77.644 118.158C82.374 109.171 90.763 102.088 99.0421 100.141L167.8 84.007C173.938 82.5675 179.143 84.1201 182.09 88.2841C186.258 94.1982 185.183 103.822 179.334 112.851L132.599 185.05C126.153 195.026 115.668 201.364 107.083 200.513C106.343 200.42 105.634 200.309 104.944 200.124ZM167.887 84.3729L167.974 84.7388L99.2335 100.904C91.1777 102.805 82.9645 109.725 78.3365 118.528C74.8695 125.164 73.9866 131.808 75.9502 136.789L97.9806 192.828C99.5823 196.895 102.763 199.303 107.158 199.742C115.459 200.569 125.644 194.363 131.945 184.637L178.654 112.432C184.326 103.671 185.42 94.3693 181.44 88.7424C178.643 84.8034 173.875 83.3941 167.967 84.7634L167.887 84.3729Z" fill="#09B850"/>
<path d="M108.795 206.033C105.299 205.097 102.493 202.868 100.724 199.521L70.2094 142.157C67.44 136.934 67.6094 129.704 70.6616 122.35C74.8147 112.365 83.3213 104.153 92.3366 101.429L166.267 79.0889C173.102 77.0189 179.112 78.4186 182.79 82.9099C187.637 88.8481 187.365 98.9237 182.117 108.562L138.677 188.26C132.798 199.074 122.077 206.587 112.676 206.519C111.297 206.545 110.001 206.356 108.795 206.033ZM166.49 79.8339L92.5592 102.174C83.7738 104.828 75.4429 112.876 71.3738 122.646C68.3989 129.81 68.2215 136.774 70.8828 141.81L101.373 199.168C103.615 203.406 107.631 205.748 112.639 205.771C121.781 205.822 132.221 198.471 137.978 187.915L181.418 108.217C186.513 98.8536 186.829 89.1061 182.182 83.4061C178.722 79.184 173.007 77.8635 166.49 79.8339Z" fill="#09B850"/>
<path d="M113.537 211.97C110.14 211.059 107.299 209.059 105.228 206.053L65.2546 147.947C61.6266 142.678 60.9919 135.101 63.5161 127.157C66.9608 116.271 75.4308 106.916 85.097 103.338L164.076 74.0732C171.633 71.2744 178.55 72.4424 183.045 77.2318C188.707 83.2827 189.354 93.4728 184.717 103.882L145.719 191.228C140.486 202.979 129.996 211.503 119.637 212.444C117.452 212.623 115.408 212.471 113.537 211.97ZM175.955 73.8558C172.508 72.9323 168.522 73.2349 164.311 74.769L85.3574 104.04C75.921 107.548 67.64 116.69 64.2481 127.38C61.8078 135.108 62.4033 142.438 65.8739 147.506L105.854 205.588C108.915 210.019 113.769 212.19 119.558 211.658C129.643 210.75 139.877 202.394 144.989 190.9L183.987 103.554C188.488 93.4519 187.917 83.5719 182.455 77.7591C180.676 75.8326 178.466 74.5287 175.955 73.8558Z" fill="#09B850"/>
<path d="M119.284 217.806C116.059 216.942 113.207 215.176 110.908 212.53L60.4132 154.399C55.815 149.107 54.309 141.138 56.2198 132.53C58.8314 120.814 67.1218 110.356 77.2978 105.86L161.028 68.9069C169.286 65.2676 177.191 66.0942 182.689 71.1788C189.186 77.1636 190.841 87.7291 187.005 98.6952L153.745 193.773C149.423 206.164 139.104 215.92 128.121 218.012C125.007 218.601 121.992 218.531 119.284 217.806ZM161.22 69.2746L161.387 69.6357L77.6386 106.558C67.6745 110.953 59.5664 121.222 56.9962 132.685C55.12 141.066 56.5869 148.787 61.0277 153.878L111.491 212.027C115.525 216.667 121.386 218.527 128.01 217.244C138.745 215.191 148.794 205.653 153.051 193.508L186.311 98.4301C190.043 87.7526 188.482 77.5283 182.198 71.7324C176.931 66.8681 169.328 66.096 161.369 69.6045L161.22 69.2746Z" fill="#09B850"/>
<path d="M126.102 223.481C123.074 222.67 120.318 221.14 117.9 218.937L55.8257 161.578C50.1145 156.305 47.5647 147.898 48.8328 138.537C50.5158 126.151 58.4412 114.594 69.0597 109.136L157.196 63.7149C166.131 59.1236 175.076 59.5171 181.758 64.8132C189.177 70.7026 191.971 81.547 189.066 93.0787L163.01 195.834C159.677 208.964 150.028 219.664 138.399 223.085C134.044 224.37 129.869 224.49 126.102 223.481ZM157.37 64.0514L157.543 64.3879L69.4005 109.833C59.0185 115.197 51.2394 126.503 49.5977 138.637C48.3709 147.745 50.8257 155.915 56.3483 161.006L118.423 218.365C123.629 223.161 130.634 224.59 138.17 222.365C149.52 219.001 158.979 208.514 162.24 195.654L188.296 92.8988C191.147 81.6689 188.453 71.1411 181.271 65.4473C174.852 60.3533 166.191 59.9832 157.555 64.4437L157.37 64.0514Z" fill="#09B850"/>
<path d="M133.931 228.821C131.198 228.089 128.628 226.847 126.295 225.115L51.5131 169.491C44.4967 164.263 40.749 155.404 41.2955 145.191C41.9712 132.034 49.2407 119.773 60.2854 113.217L152.334 58.5115C161.75 52.9155 172.083 52.7582 179.969 58.0873C188.571 63.898 192.54 74.6883 190.624 86.9595L173.326 197.307C171.204 210.841 162.198 222.688 150.353 227.502C144.783 229.779 139.076 230.2 133.931 228.821ZM152.551 58.8858L152.749 59.2289L60.6821 113.903C49.887 120.316 42.7639 132.325 42.0736 145.241C41.5684 155.202 45.1719 163.812 51.9931 168.882L126.775 224.505C133.292 229.336 141.772 230.184 150.093 226.799C161.676 222.074 170.518 210.446 172.592 197.189L189.884 86.8666C191.77 74.9037 187.907 64.4055 179.55 58.7657C171.932 53.6142 161.915 53.7769 152.756 59.2043L152.551 58.8858Z" fill="#09B850"/>
<path d="M142.977 233.855C140.639 233.229 138.385 232.282 136.249 230.998L47.7088 178.172C39.1573 173.06 34.0573 163.733 33.7297 152.548C33.3191 138.915 39.9787 125.78 51.1081 118.218L146.434 53.4511C156.369 46.7027 167.894 45.8369 177.24 51.1353C187.021 56.682 192.428 67.6204 191.683 80.4428L184.898 198.035C184.097 212.055 176.148 224.687 164.185 231.024C157.2 234.74 149.772 235.676 142.977 233.855ZM146.663 53.7762L146.893 54.1013L51.5425 118.862C40.6382 126.273 34.0937 139.175 34.4964 152.542C34.8226 163.437 39.7718 172.54 48.0968 177.512L136.662 230.344C144.785 235.183 154.676 235.198 163.838 230.351C175.582 224.14 183.36 211.752 184.145 197.992L190.93 80.399C191.644 67.885 186.406 57.2027 176.87 51.8269C167.775 46.6749 156.572 47.5215 146.886 54.1259L146.663 53.7762Z" fill="#09B850"/>
<path d="M153.142 238.371C151.345 237.889 149.594 237.236 147.858 236.428L44.4207 187.597C34.091 182.721 27.404 172.916 26.0678 160.669C24.5314 146.708 30.4628 132.745 41.516 124.188L139.359 48.5496C149.704 40.5667 162.412 38.8317 173.375 43.9044C184.528 49.0545 191.541 60.1067 192.129 73.4707L197.731 197.915C198.367 212.082 191.52 225.721 179.837 233.477C171.455 239.06 161.981 240.739 153.142 238.371ZM168.169 42.852C158.69 40.3124 148.435 42.5463 139.849 49.1818L42.0063 124.82C31.1601 133.196 25.3438 146.926 26.8543 160.59C28.1579 172.564 34.6941 182.144 44.7661 186.899L148.204 235.729C158.208 240.44 169.57 239.398 179.427 232.84C190.885 225.234 197.611 211.853 196.982 197.951L191.356 73.5007C190.763 60.4517 183.919 49.6556 173.054 44.6092C171.459 43.8655 169.818 43.294 168.169 42.852Z" fill="#09B850"/>
<path d="M164.253 242.192C163.244 241.922 162.248 241.602 161.234 241.251L41.8621 197.826C29.6704 193.399 20.9123 182.854 18.4115 169.637C15.7263 155.237 20.6501 140.898 31.6535 131.246L131.037 43.9482C141.602 34.6535 155.483 31.8884 168.203 36.5093C180.899 41.1236 189.753 52.1949 191.891 66.0794L211.878 196.803C214.099 211.264 208.665 225.439 197.34 234.715C187.752 242.531 175.603 245.233 164.253 242.192ZM164.937 36.293C153.341 33.186 141.064 36.1699 131.541 44.5313L32.1569 131.829C21.3606 141.299 16.5026 155.392 19.1619 169.495C21.6055 182.434 30.1816 192.771 42.1091 197.101L161.481 240.527C173.408 244.856 186.609 242.462 196.812 234.125C207.93 225.031 213.26 211.144 211.079 196.932L191.091 66.2079C189.017 52.5777 180.332 41.7625 167.932 37.2273C166.917 36.8765 165.921 36.5568 164.937 36.293Z" fill="#09B850"/>
<path d="M176.511 245.292L40.1733 208.76C25.6976 204.881 14.7269 193.928 10.8499 179.446C6.97292 164.964 10.9796 150.01 21.5718 139.431L121.322 39.7368C131.945 29.1397 146.923 25.1395 161.398 29.0182C175.874 32.897 186.845 43.85 190.722 58.3324L227.285 194.552C231.162 209.034 227.156 223.988 216.563 234.567C205.971 245.146 190.987 249.171 176.511 245.292ZM121.62 40.0013L121.888 40.2838L22.1131 139.972C11.7033 150.362 7.76904 165.045 11.5888 179.249C15.4086 193.452 26.1727 204.192 40.3776 207.998L176.716 244.53C190.921 248.336 205.612 244.417 216.022 234.026C226.432 223.636 230.366 208.953 226.546 194.749L189.983 58.5298C186.163 44.3263 175.406 33.5623 161.201 29.756C146.996 25.9498 132.304 29.8685 121.894 40.2592L121.62 40.0013Z" fill="#09B850"/>
</g>
<defs>
<clipPath id="clip0_29_1494">
<rect width="224.236" height="205.171" fill="white" transform="translate(53.1016) rotate(15)"/>
</clipPath>
</defs>
</svg>
