<?xml version="1.0" encoding="utf-8"?>
<!-- Generator: Adobe Illustrator 23.0.0, SVG Export Plug-In . SVG Version: 6.00 Build 0)  -->
<svg version="1.1" id="Layer_1" xmlns="http://www.w3.org/2000/svg" xmlns:xlink="http://www.w3.org/1999/xlink" x="0px" y="0px"
	 width="201.7px" height="50.2px" viewBox="0 0 201.7 50.2" style="enable-background:new 0 0 201.7 50.2;" xml:space="preserve">
<style type="text/css">
	.st0{fill:#00B67A;}
	.st1{fill:#005128;}
</style>
<path d="M52.6,17.4h20.2v3.8h-8v21.2h-4.4V21.2h-7.9L52.6,17.4z M71.9,24.3h3.7v3.5h0.1c0.1-0.5,0.4-1,0.7-1.4
	c0.3-0.5,0.7-0.9,1.2-1.3c0.5-0.4,1-0.7,1.6-0.9c0.6-0.2,1.2-0.4,1.8-0.4c0.5,0,0.8,0,1,0c0.2,0,0.4,0.1,0.5,0.1v3.8
	c-0.3-0.1-0.6-0.1-0.9-0.1c-0.3,0-0.6-0.1-0.9-0.1c-0.7,0-1.3,0.1-1.9,0.4c-0.6,0.3-1.1,0.7-1.6,1.2c-0.4,0.5-0.8,1.2-1.1,1.9
	s-0.4,1.7-0.4,2.7v8.6h-4L71.9,24.3z M100.9,42.4h-3.9v-2.5h-0.1c-0.5,0.9-1.2,1.6-2.2,2.2c-1,0.6-2,0.8-3,0.8
	c-2.4,0-4.1-0.6-5.2-1.8c-1.1-1.2-1.6-3-1.6-5.3V24.3h4v11.1c0,1.6,0.3,2.7,0.9,3.4c0.6,0.7,1.5,1,2.6,1c0.8,0,1.5-0.1,2.1-0.4
	c0.6-0.3,1-0.6,1.4-1c0.4-0.4,0.6-1,0.8-1.6c0.2-0.6,0.2-1.3,0.2-2V24.3h4L100.9,42.4L100.9,42.4z M107.7,36.6
	c0.1,1.2,0.6,2,1.3,2.5c0.8,0.5,1.7,0.7,2.8,0.7c0.4,0,0.8,0,1.3-0.1c0.5-0.1,0.9-0.2,1.3-0.3c0.4-0.2,0.8-0.4,1-0.7
	c0.3-0.3,0.4-0.7,0.4-1.2c0-0.5-0.2-0.9-0.6-1.3c-0.4-0.3-0.8-0.6-1.3-0.8c-0.5-0.2-1.2-0.4-1.9-0.5c-0.7-0.1-1.4-0.3-2.1-0.5
	c-0.7-0.2-1.5-0.4-2.2-0.6c-0.7-0.2-1.3-0.5-1.9-1c-0.5-0.4-1-0.9-1.3-1.5c-0.3-0.6-0.5-1.4-0.5-2.3c0-1,0.2-1.8,0.7-2.5
	c0.5-0.7,1.1-1.2,1.8-1.6s1.6-0.7,2.5-0.9s1.8-0.2,2.6-0.2c0.9,0,1.8,0.1,2.7,0.3c0.8,0.2,1.6,0.5,2.3,1c0.7,0.4,1.3,1,1.7,1.7
	c0.5,0.7,0.7,1.6,0.9,2.6H115c-0.2-1-0.6-1.6-1.3-1.9c-0.7-0.3-1.5-0.5-2.4-0.5c-0.3,0-0.6,0-1,0.1c-0.4,0.1-0.7,0.1-1.1,0.3
	c-0.3,0.1-0.6,0.3-0.9,0.6s-0.4,0.6-0.4,1c0,0.5,0.2,0.9,0.5,1.2c0.3,0.3,0.8,0.5,1.3,0.8c0.5,0.2,1.2,0.4,1.9,0.5
	c0.7,0.1,1.4,0.3,2.2,0.5s1.4,0.4,2.1,0.6c0.7,0.2,1.3,0.5,1.9,1c0.5,0.4,1,0.9,1.3,1.5c0.3,0.6,0.5,1.4,0.5,2.2
	c0,1.1-0.2,2-0.7,2.7c-0.5,0.7-1.1,1.4-1.9,1.8c-0.8,0.5-1.7,0.8-2.6,1c-1,0.2-1.9,0.3-2.8,0.3c-1.1,0-2.2-0.1-3.2-0.4
	c-1-0.3-1.8-0.7-2.5-1.2c-0.7-0.5-1.3-1.2-1.7-2c-0.4-0.8-0.6-1.7-0.7-2.8L107.7,36.6L107.7,36.6L107.7,36.6z M120.8,24.3h3v-5.5h4
	v5.4h3.6v3h-3.6v9.7c0,0.4,0,0.8,0.1,1.1c0,0.3,0.1,0.6,0.2,0.8c0.1,0.2,0.3,0.4,0.6,0.5c0.3,0.1,0.6,0.2,1.1,0.2c0.3,0,0.6,0,0.8,0
	s0.6-0.1,0.8-0.1v3.1c-0.4,0.1-0.9,0.1-1.3,0.1c-0.4,0.1-0.8,0.1-1.3,0.1c-1.1,0-1.9-0.1-2.5-0.3s-1.1-0.5-1.5-0.9
	c-0.4-0.4-0.6-0.9-0.7-1.4c-0.1-0.6-0.2-1.3-0.2-2V27.3h-3L120.8,24.3L120.8,24.3z M134.3,24.3h3.8v2.5h0.1c0.6-1.1,1.3-1.8,2.3-2.3
	c1-0.5,2.1-0.7,3.3-0.7c1.4,0,2.7,0.2,3.7,0.8c1.1,0.5,1.9,1.2,2.6,2.1c0.7,0.9,1.2,1.9,1.6,3.1c0.3,1.2,0.5,2.4,0.5,3.7
	c0,1.2-0.2,2.4-0.5,3.5c-0.3,1.1-0.8,2.2-1.4,3s-1.4,1.6-2.4,2.1s-2.1,0.8-3.5,0.8c-0.6,0-1.2-0.1-1.7-0.2c-0.6-0.1-1.1-0.3-1.7-0.5
	c-0.5-0.2-1-0.5-1.5-0.9c-0.5-0.4-0.8-0.8-1.1-1.3h-0.1v9h-4L134.3,24.3L134.3,24.3z M148.2,33.4c0-0.8-0.1-1.6-0.3-2.4
	c-0.2-0.8-0.5-1.4-1-2s-1-1.1-1.6-1.4c-0.6-0.4-1.4-0.5-2.2-0.5c-1.7,0-2.9,0.6-3.8,1.7c-0.8,1.2-1.3,2.7-1.3,4.7
	c0,0.9,0.1,1.8,0.3,2.5c0.2,0.8,0.5,1.4,1,2c0.4,0.6,1,1,1.6,1.3s1.3,0.5,2.2,0.5c0.9,0,1.7-0.2,2.3-0.6s1.1-0.9,1.6-1.4
	c0.4-0.6,0.7-1.3,0.9-2C148.1,34.9,148.2,34.2,148.2,33.4z M155.3,17.4h4v3.8h-4V17.4z M155.3,24.3h4v18.1h-4V24.3z M162.8,17.4h4
	v25h-4V17.4z M179,42.9c-1.4,0-2.7-0.2-3.9-0.7c-1.1-0.5-2.1-1.1-2.9-2c-0.8-0.8-1.4-1.9-1.8-3c-0.4-1.2-0.6-2.5-0.6-3.8
	c0-1.4,0.2-2.6,0.6-3.8c0.4-1.2,1-2.2,1.8-3c0.8-0.8,1.7-1.5,2.9-2c1.1-0.5,2.4-0.7,3.9-0.7s2.7,0.2,3.9,0.7c1.1,0.5,2.1,1.1,2.9,2
	c0.8,0.8,1.4,1.9,1.8,3c0.4,1.2,0.6,2.4,0.6,3.8c0,1.4-0.2,2.7-0.6,3.8s-1,2.2-1.8,3c-0.8,0.8-1.7,1.5-2.9,2
	C181.8,42.6,180.5,42.9,179,42.9z M179,39.7c0.9,0,1.7-0.2,2.3-0.6c0.7-0.4,1.2-0.9,1.6-1.5c0.4-0.6,0.7-1.3,0.9-2
	c0.2-0.8,0.3-1.5,0.3-2.3c0-0.8-0.1-1.5-0.3-2.3s-0.5-1.4-0.9-2c-0.4-0.6-1-1.1-1.6-1.4c-0.7-0.4-1.4-0.6-2.3-0.6s-1.7,0.2-2.3,0.6
	c-0.7,0.4-1.2,0.9-1.6,1.4c-0.4,0.6-0.7,1.3-0.9,2c-0.2,0.8-0.3,1.5-0.3,2.3c0,0.8,0.1,1.6,0.3,2.3s0.5,1.4,0.9,2
	c0.4,0.6,1,1.1,1.6,1.5C177.4,39.6,178.2,39.7,179,39.7z M189.4,24.3h3v-5.5h4v5.4h3.6v3h-3.6v9.7c0,0.4,0,0.8,0.1,1.1
	c0,0.3,0.1,0.6,0.2,0.8c0.1,0.2,0.3,0.4,0.6,0.5c0.3,0.1,0.6,0.2,1.1,0.2c0.3,0,0.6,0,0.8,0c0.3,0,0.6-0.1,0.8-0.1v3.1
	c-0.4,0.1-0.9,0.1-1.3,0.1c-0.4,0.1-0.8,0.1-1.3,0.1c-1.1,0-1.9-0.1-2.5-0.3c-0.6-0.2-1.1-0.5-1.5-0.9c-0.4-0.4-0.6-0.9-0.7-1.4
	c-0.1-0.6-0.2-1.3-0.2-2V27.3h-3V24.3L189.4,24.3z"/>
<path class="st0" d="M47.9,17.4H29.6L24,0l-5.7,17.4L0,17.4l14.8,10.8L9.1,45.5l14.8-10.8l14.8,10.8l-5.6-17.4L47.9,17.4z"/>
<path class="st1" d="M34.4,32.1l-1.3-3.9L24,34.8L34.4,32.1z"/>
</svg>
