<svg width="124.2px" height="76.9px" viewBox="0 0 124.2 76.9" style="enable-background:new 0 0 124.2 76.9;" xml:space="preserve">
						<path class="fill-mode" d="M70.4,13c0-0.2,0-0.2,0-0.3c0,0,0-0.1,0-0.1c0,0-0.1,0,0,0c-0.4,0.2-0.8,0.3-1.1,0.4c-0.3,0.1-0.5,0.7-1,0.4 c-0.5-0.3-0.6,0.5-1,0.3c0-0.1,0-0.2,0-0.5l-1.2,1c0-0.2,0-0.2,0-0.3c0,0,0-0.1,0-0.1c0,0-0.1,0-0.1-0.1c-0.3,0.1-0.6,0.7-1,0.3 c-0.3,0.2-0.5,0.4-0.8,0.6c-0.1,0.1-0.3-0.1-0.5-0.2c-0.3,0.2-0.6,0.4-0.9,0.6c-0.5-0.5-0.7,0.1-1,0.2c-0.1,0.1-0.3,0.2-0.3,0.1 c-0.5-0.5-0.7,0.1-1,0.3c-0.2,0.1-0.3,0.2-0.5,0c0,0-0.3,0-0.4,0.1c-0.2,0.2-0.4,0.3-0.6,0.5c-0.7-0.6-0.9,0.4-1.3,0.3 c-0.1-0.1-0.2-0.2-0.4-0.3L56,17.5c0-0.2,0-0.3,0-0.4c-1.1,0.1-2.1,0.6-3.2,0.9c-0.8,0.2-1.8,0.4-2.4,1.2c0,0-0.1,0-0.2,0.1 c0-0.1,0-0.2,0-0.4c-0.6,0.2-1.3,0.3-1.8,0.5c-1.1,0.5-2.4,0.5-3.2,1.5c0,0-0.1,0-0.2,0c0-0.1,0-0.2,0-0.3c-0.9,0.2-1.3,0.4-2,1 c0-0.1,0-0.2,0-0.4c-1,0.3-1.9,0.7-2.9,1c0,0-0.9,0.7-0.9,0.7c-0.1,0-0.1,0-0.2,0c0-0.1,0-0.2,0-0.4c-0.4,0.2-0.8,0.5-1.1,0.5 c-0.7-0.2-0.4,0.8-0.9,0.6c0-0.1,0-0.2,0-0.4c-1.3,0.5-2.7,0.9-4,1.4c-0.2,0.1-0.3,0.2-0.4,0.4c0,0.1-0.2,0.2-0.3,0.4 c0-0.3,0-0.4,0-0.5c-0.7,0.2-1.4,0.4-2.1,0.7c-0.1,0-0.1,0.2-0.2,0.4c-0.1,0.1-0.2,0.2-0.4,0.4c0-0.3,0-0.4,0-0.5 c-0.7,0.2-1.4,0.4-2.1,0.7c-0.1,0-0.1,0.3-0.2,0.4c-0.1,0.1-0.2,0.2-0.4,0.4c0-0.3,0-0.4,0-0.5c-0.7,0.2-1.4,0.4-2.1,0.7 c-0.1,0-0.1,0.3-0.2,0.4c-0.1,0.1-0.2,0.2-0.4,0.4c0-0.3,0-0.4,0-0.6c-0.6,0.3-1.2,0.5-1.8,0.8c-0.1,0-1.5,0.9-1.5,0.9 c0,0-0.1,0-0.1,0c0-0.1,0-0.2,0-0.4c-1.4,0.5-2.9,1-4.3,1.5c-2.2,0.8-4.5,1.7-6.7,2.5c-1.5,0.6-3,1-4.5,1.6c-1.1,0.4-2.2,0.7-3.4,1 c-0.2,0.1-0.5,0.1-0.7,0.1c0,0-0.1,0-0.1,0c0.2-0.5-0.3-0.3-0.4-0.5c-0.3-0.3,0-0.5,0-0.7c-0.2-0.1-0.4-0.2-0.6-0.4 c0.3-0.2,0.4-0.4,0.6-0.5c0.2-0.1,0.4-0.1,0.6-0.2c-0.4-0.5-1,0.3-1.3-0.5c0.2-0.1,0.5-0.4,0.7-0.5c2-0.5,3.9-1.3,5.9-2.1 c2.6-1,5.2-1.9,7.7-3c1.7-0.7,3.5-1.3,5.2-1.9c1.4-0.6,2.8-1.1,4.3-1.6c2.4-0.8,4.7-1.9,7.1-2.6c1.6-0.5,3.2-1.2,4.8-1.7 c2.5-0.9,5-1.8,7.5-2.6c1.4-0.5,2.8-1,4.2-1.5c1.7-0.5,3.3-1.3,5-1.8c2-0.6,3.9-1.3,5.8-1.9c1.3-0.4,2.7-0.8,4-1.2 c2-0.7,4-1.3,6-1.9c1.1-0.3,2.2-0.7,3.3-0.9c1-0.3,2-0.6,3-0.9c1-0.4,2.1-0.6,3.2-0.9c1.6-0.5,3.3-0.9,4.9-1.4 c1.4-0.4,2.9-0.7,4.4-1.1c2.2-0.6,4.4-0.9,6.7-1.5c2.1-0.5,4.1-0.9,6.1-1.6c0.3-0.1,0.8-0.4,1.1,0.2c-0.2,0.2-0.4,0.4-0.6,0.5 c-0.3,0.1-0.6,0.1-0.8,0.5c0.7-0.2,1.2-0.4,2-0.6c-0.3,0.4-0.4,0.7-0.6,1.1c0.1,0.1,0.3,0.2,0.3,0.3c-0.1,0.4,0,0.8-0.1,1.2 c-0.1,0.4-0.5,0.4-0.8,0.4c-0.1,0-0.1,0.2-0.2,0.3c0,0.1-0.1,0.1-0.2,0.1c-0.6,0-1,0.1-1.3,0.6c-0.1,0.1-0.2,0.1-0.3,0.2 c0-0.2,0-0.3,0-0.4c-0.9,0.1-1.8,0.5-2.5,1.2c-0.1-0.2-0.1-0.3-0.1-0.6c-0.6,0.3-1.2,0.7-1.7,1c0-0.1,0-0.3,0-0.4 c-0.7,0-1.2,0.5-1.7,0.9c0-0.2-0.1-0.3-0.1-0.5C91.5,6.7,90.7,7,90,7.3c0-0.1,0-0.2,0-0.4c-0.8,0.4-1.6,0.7-2.3,1.1 c0-0.1,0-0.2,0-0.4c-0.8,0.4-1.6,0.7-2.3,1.1c0-0.1,0-0.2,0-0.4c-0.8,0.4-1.6,0.7-2.3,1c0-0.1,0-0.2,0-0.4c-0.8,0.4-1.6,0.7-2.3,1.1 c0-0.1,0-0.2,0-0.4c-0.6,0.3-1.2,0.6-1.8,0.9c0-0.2,0-0.3,0-0.5c-0.4,0.3-0.7,0.5-1.1,0.6c-0.4,0.2-0.5-0.3-0.7-0.1 c-0.2,0.2-0.4,0.4-0.7,0.5c-0.4,0.2-0.7,0.3-1.1,0.4c0-0.1,0-0.2,0-0.4c-0.6,0.3-1.2,0.6-1.8,0.9c0-0.1,0-0.3,0-0.4 c-0.6,0.3-1.2,0.6-1.8,0.9c0-0.2,0-0.3,0-0.5L70.4,13z"></path>
						<path class="fill-mode" d="M52.9,71.2c3.7-2.9,4-3.1,4.3-3.3c4.2-3.4,8.4-6.8,12.5-10.2c0.4-0.3,0.6-0.8,1.2-0.7c0.1-0.5,0.5-0.7,0.8-0.9 c0.3-0.2,0.7-0.3,0.9-0.6c0.2-0.2,0.5-0.3,0.6-0.6c1.9-0.9,3.2-2.4,4.8-3.6c1.6-1.2,3.2-2.6,4.8-3.9c0.2-0.2,0.4-0.5,0.8-0.4 c0-0.4,0.3-0.5,0.5-0.7c0.2-0.2,0.4-0.4,0.8-0.4c0-0.5,0.4-0.6,0.7-0.8c0.2-0.1,0.5-0.1,0.6-0.2c0.1-0.1,0.1-0.4,0.4-0.3 c0.1,0,0.3-0.3,0.4-0.4c0.1-0.1,0.2-0.4,0.2-0.4c0.5,0.1,0.8-0.4,1.1-0.6c1.3-1,2.5-2.1,3.8-3.1c0.2-0.2,0.5-0.3,0.6-0.6 c0.2-0.3,0.6,0,0.7-0.5c0-0.2,0.4-0.4,0.6-0.6c1.8-0.9,3.2-2.4,4.8-3.6c0.2-0.2,0.7,0,0.6-0.5c0.5,0.2,0.3-0.3,0.5-0.4 c1.6-0.7,2.6-2.2,4.1-3c1.6-0.9,2.7-2.3,4.3-3.2c1.3-0.7,2.3-1.7,3.5-2.6c0.1-0.1,0.2-0.2,0.3-0.4c-0.1,0.1-0.2,0.1-0.3,0.2 c-0.6,0.5-1.2,1.2-1.9,1.5c-0.8,0.3-1.2,0.9-1.8,1.3c-0.7,0.5-1.2,1.2-1.9,1.5c-1.5,0.8-2.6,2.2-4.1,3c-1.8,1.1-3.2,2.7-5,3.8 c-2,1.2-3.5,2.9-5.4,4.1c-2.6,1.6-4.7,3.7-7.1,5.5c-0.3,0.2-0.7,0.4-0.9,0.7c-0.2,0.2-0.6,0.4-0.9,0.5c-0.3,0.1-0.6,0.4-0.7,0.6 c-0.1,0.3-0.2,0.4-0.5,0.4c-0.1,0-0.1,0.1-0.2,0.1c-0.4,0.1-0.4,0.7-0.9,0.8c-0.3,0.1-0.7,0.3-0.7,0.9c-0.3-0.2-0.3,0.3-0.5,0.3 c-0.6,0.2-1,0.6-1.4,1.1c-0.2,0.2-0.4,0.6-0.6,0.7c-0.9,0.3-1.4,1-2.2,1.5c-0.4,0.2-0.6,0.7-1.1,0.6c-0.1,0-0.2,0.2-0.2,0.2 c0,0.5-0.4,0.6-0.7,0.8c-4.5,3.7-9,7.4-13.5,11c-0.3,0.2-0.5,0.6-1,0.5c-0.1,0-0.3,0.2-0.4,0.3c-0.1,0.1-1.2,0.9-1.3,1.1 c-0.3,0.3-0.5,0.6-0.7,1C56.3,68.5,56.3,68.5,52.9,71.2c-1.5,1.1,0.3-0.4,2.2-1.9c0.1-0.1,0.3-0.3,0.4-0.3c0.4,0.1,0.4-0.3,0.5-0.4 c0.1-0.1,0.1-0.2,0.1-0.2c-0.1,0-0.2,0-0.2,0c-1.4,1.1-2.8,2.2-4.2,3.4c-0.7,0.6-1.5,0.9-2.2,1.4c-0.1,0-0.3-0.2-0.4-0.3 c1.4-1.2,2.8-2.2,4.1-3.4c0.4-0.4,1.2-0.3,1.3-1c1.1-0.3,1.8-1.2,2.6-1.9c6.2-5.1,12.4-10.1,18.6-15.2c0.3-0.3,0.7-0.7,1.1-0.8 c0.4-0.1,0.4-0.7,1-0.6c0.1,0,0.3-0.4,0.5-0.6c0.1-0.1,0.2-0.2,0.3-0.4c0.2-0.2,0.7,0.1,0.7-0.5c0-0.4,0.7,0,0.7-0.6 c0-0.1,0.4-0.4,0.6-0.4c0.5,0.1,0.2-0.6,0.5-0.5c0.5,0.1,0.7-0.3,1-0.5c0.8-0.6,1.6-1.3,2.4-1.9c0.3-0.2,0.8-0.3,0.9-0.5 c0.1-0.5,0.5-0.6,0.8-0.9c0.2-0.2,0.5-0.4,0.8-0.6l0.7-0.5l0.8-0.6l0.8-0.6l0.7-0.5c0.3-0.2,0.5-0.4,0.8-0.6 c0.2-0.2,0.7-0.2,0.7-0.4c0.1-0.3,0.6-0.2,0.5-0.6c0.3,0.1,0.5-0.1,0.7-0.3c0.3-0.2,0.5-0.4,0.8-0.6c2.1-1.6,4-3.5,6.3-4.9 c1.7-1.1,3.1-2.6,4.8-3.6c1.4-0.8,2.4-2.2,4-2.9c0.8-0.4,1.4-1.1,2.1-1.7c0.7-0.6,1.5-0.8,2.2-1.4c0.5-0.5,1-1,1.8-1.2 c0.5-0.2,0.9-0.7,1.3-1c0.5-0.3,1-0.6,1.5-0.9c0.6-0.4,1.1-1.1,1.9-1.2c0.9-0.8,2.1-1.3,3.1-1.9c0.6-0.4,1.2-0.5,1.9-0.4 c0.1,0,0.1,0.1,0.2,0.2c0,0.2,0,0.5,0,0.7c0.6,0.3,0.9,0.9,0.7,1.5c-0.1,0.3-0.2,0.5-0.1,0.9c0.1,0.4-0.3,0.8-0.1,1.2 c0,0.1-0.4,0.3-0.6,0.5c-0.6-0.4-1.1-0.2-1.6,0.1c-0.5,0.3-1,0.7-1.6,1c-1,0.6-2,1.3-2.9,2c-0.5,0.4-1,0.8-1.4,1.2c0,0-0.1,0-0.2,0 c0.2-0.3,0.4-0.5,0.7-0.7c-0.5,0.2-1,0.4-1.1,0.7c-0.1,0.6-0.8,0.5-0.8,0.8c0,0.5-0.8,0.1-0.6,0.6c-0.3,0.3-0.6,0.5-0.9,0.8 c0,0-0.1,0-0.2-0.1c0.1-0.2,0.3-0.4,0.4-0.6c-0.5,0.2-1,0.5-1.3,0.9c-0.6,1-1.5,1.4-2.4,1.9c0.2-0.2,0.5-0.5,0.7-0.7 c-0.2,0-0.3,0-0.4,0.1c-0.6,0.4-0.9,1-1.4,1.4c-0.7,0.6-1.4,1.2-2.1,1.7c0,0-0.1,0-0.2-0.1c0.2-0.2,0.4-0.5,0.6-0.7 c-0.6,0.3-1.1,0.8-1.6,1.1c-0.3,0.2-0.6,0.2-0.7,0.6c-0.1,0.4-0.5,0.3-0.8,0.1c0,0.3,0.1,0.6,0.1,0.9c-0.2-0.1-0.3-0.2-0.5-0.3 c-0.9,0.7-1.8,1.5-2.7,2.2c-0.3,0.2-0.6,0.4-1.1,0.6c0,1.1-1.1,1.3-1.8,1.8c0.3-0.3,0.6-0.6,0.8-0.8c-0.6,0.3-1.1,0.7-1.6,1.1 c-0.6,0.4-1.1,1.1-1.9,1.2c-0.3,0.1-0.6,0.4-0.5,0.9c0,0.1,0,0.1-0.1,0.2c-0.1-0.1-0.3-0.2-0.4-0.3l-1,0.8c-0.2-0.1-0.4-0.4-0.6-0.1 c0,0,0.2,0.2,0.3,0.4c-0.9,0.5-1.4,1.4-2.4,1.7c-0.5,0.8-1.3,1.4-2.2,1.8c0,0.2,0,0.4,0,0.6c-0.9-0.3-1.3,0.6-1.7,0.8 c-0.4,0-0.6,0-0.8,0c0,0.2,0,0.4,0.1,0.6c-0.9,0.7-1.7,1.4-2.6,2.1c-0.2,0.2-0.6,0.2-0.7,0.4c-0.2,0.3-0.3,0.5-0.7,0.5 c-0.2,0.1-0.3,0.5-0.6,0.6c-0.1,0.1-0.4,0.1-0.6,0.1c-0.1,0-0.3-0.1-0.4-0.2c0,0-0.1,0.1-0.2,0.1c0,0,0,0.1,0,0.2 c0.3,0,0.4,0.1,0.3,0.3c-0.1,0.2-0.2,0.4-0.3,0.4c-0.4,0-0.6,0.1-0.7,0.6c-0.1,0.3-0.8,0.1-0.8,0.7c0,0-0.1,0.1-0.1,0.1 c-0.5-0.1-0.8,0.3-1.1,0.6c-3,2.4-6,4.9-8.9,7.3c-0.2,0.2-0.4,0.5-0.7,0.5c-0.7,0.1-1.1,0.4-1.1,1.2c0,0.1-0.1,0.1-0.1,0.2 c-0.3,0.3-0.7,0.6-1,0.9c-0.3,0.3-0.7,0.5-1,0.8c0,0-0.1-0.1-0.1-0.1c0.2-0.2,0.4-0.5,0.7-0.8c-0.1,0-0.2,0-0.2,0 c-0.3,0.3-0.6,0.5-1,0.8c-0.3,0.3-0.6,0.5-0.9,0.8l-1,0.9c-0.3,0.3-0.6,0.7-1,0.7c-0.5,0.1-0.5,0.5-0.8,0.7 c-0.9,0.7-1.8,1.3-2.7,1.9c-1.2,0.7-2.2,1.7-3.2,2.6c-1,0.9-2.3,1.4-3.3,2.4c0,0-0.1,0-0.2,0c0-0.1,0-0.2,0-0.3c-0.3,0-0.6,0-1,0.1 c0.3-0.4,0.4-0.7,0.6-1C50.2,73.7,50,74.5,52.9,71.2"></path>
						<path class="fill-mode" d="M84.4,23.7c0.4-0.1,0.6-0.2,0.8-0.2c0.6-0.3,1.2-0.5,1.7-1.1c0.5,0.2,0.6-0.4,1.1-0.4c0.5,0,0.7-0.4,1-0.6 c0.5-0.3,1.1-0.4,1.6-0.7c0.8-0.5,1.7-0.8,2.5-1.3c0.5-0.3,1-0.5,1.5-0.8c0.8-0.4,1.7-0.7,2.5-1.2c0.7-0.5,1.6-0.8,2.4-1.2 c0.6-0.3,1.4-0.5,2-0.8c1.3-0.8,2.8-1.2,4.1-1.7c0.4,0.3,0.7,0.5,1.1,0.8c-0.3,0.5-0.2,1.1-0.4,1.8c-0.2,0.1-0.5,0.3-0.8,0.3 c-0.5,0-1-0.1-1.3,0.4c-1.7,0.4-3,1.4-4.6,1.9c-0.9,0.3-1.8,0.7-2.6,1.2c-0.9,0.6-1.9,0.6-2.7,1.4c-1.7,0.6-3.2,1.6-4.8,2.4 c-0.7-0.1-1.1,0.7-1.7,0.9c-0.8,0.2-1.4,1.1-2.4,1c0,0,0,0.1,0,0.1c-0.4,0.5-1.1,0.6-1.6,1.1C83.4,27,83.2,27.1,83,27 c-0.2,0-0.5-0.4-0.6-0.1c-0.1,0.3-0.3,0.3-0.5,0.5c-0.2,0.2-0.4,0.5-0.6,0.7c-0.4,0.2-0.9,0.4-1.3,0.4c-0.5,0-0.4,0.4-0.7,0.7 c-0.3,0-0.7-0.1-1.1-0.1c-0.5,0.5-0.9,1-1.4,1.5c0-0.3,0-0.4,0-0.5c-0.6,0.1-0.7,0.6-0.9,1c-0.2-0.1-0.3-0.2-0.5-0.3 c0.1,0.6-0.7,0.4-0.8,0.8c-0.2-0.1-0.3-0.3-0.5-0.4c-0.1,0.2-0.2,0.4-0.3,0.5c-0.4,0.4-1.1,0.5-1.4,1.1c0,0-0.3,0.1-0.4,0 c-0.3-0.2-0.4,0.2-0.6,0.2c-0.3-0.1-0.3,0.3-0.5,0.3l-0.5-0.6c0.7-1,1.9-1.2,2.7-1.9c0.7,0,0.9-0.5,1.3-0.9 c-0.5,0.2-1.1,0.5-1.6,0.7c0-0.1-0.1-0.1-0.1-0.2c1.1-0.6,2.1-1.2,3.2-1.9l0.1,0.1c-0.4,0.4-0.9,0.8-1.3,1.2 c0.8-0.4,1.6-0.7,2.3-1.1c0.8-0.4,1.5-1,2.2-1.5c-0.4,0-0.8,0.2-1.2,0.4c-0.4,0.2-0.6,0.8-1.3,0.4c0.3-0.3,0.6-0.7,0.9-0.7 c0.5,0,0.7-0.5,1.1-0.5c0.5,0,0.7-0.5,1.1-0.7c0.2-0.1,0.5-0.2,0.7-0.3c0.1,0,0.3,0.1,0.4,0.2c-0.7,0.1-1,0.6-1.3,1.1 c0.6-0.6,1.6-0.5,2-1.3c-0.2-0.2-0.6,0.4-0.7-0.3c0.3-0.1,0.6-0.3,0.9-0.4c0.6-0.3,1.1-0.7,1.7-1.1c0.3-0.1,0.6-0.2,0.9-0.3 c0.1,0,0.2,0.1,0.3,0.2c-0.1,0.1-0.2,0.2-0.2,0.3c-0.1,0.1-0.1,0.2-0.2,0.3c0,0,0.1,0,0.1,0.1l0.9-0.7C85,23.9,84.8,23.9,84.4,23.7"></path>
					</svg>