<svg width="50" height="50" viewBox="0 0 24 24" fill="none" xmlns="http://www.w3.org/2000/svg">
                            <path d="M2.25 11.9994C2.25 11.2426 2.33278 10.5061 2.48954 9.79839C3.52877 11.4668 4.9817 12.8444 6.70303 13.7805C6.89642 15.2744 7.31649 16.8492 7.91754 18.3021C8.4287 19.5376 9.08647 20.7226 9.87759 21.7036C5.52106 20.7171 2.25 16.7562 2.25 11.9994Z" fill="green" fill-opacity="0.25"></path>
                            <path d="M6.58273 11.9511C5.09625 10.9367 3.89759 9.51584 3.14064 7.84162C4.39913 5.05845 6.8817 2.97347 9.87759 2.2951C9.08647 3.2761 8.4287 4.46106 7.91754 5.69662C7.07721 7.72786 6.59064 9.99757 6.58273 11.9511Z" fill="green" fill-opacity="0.25"></path>
                            <path d="M16.0799 18.3021C15.5688 19.5376 14.911 20.7226 14.1199 21.7036C18.4764 20.7171 21.7475 16.7562 21.7475 11.9994C21.7475 11.2426 21.6647 10.5061 21.508 9.79841C20.4687 11.4668 19.0158 12.8445 17.2944 13.7805C17.1011 15.2744 16.681 16.8492 16.0799 18.3021Z" fill="green" fill-opacity="0.25"></path>
                            <path d="M17.4148 11.9511C18.9012 10.9367 20.0999 9.51585 20.8569 7.84164C19.5984 5.05847 17.1158 2.97347 14.1199 2.29511C14.911 3.2761 15.5688 4.46106 16.0799 5.69662C16.9203 7.72786 17.4069 9.99758 17.4148 11.9511Z" fill="green" fill-opacity="0.25"></path>
                            <path d="M9.3035 6.27003C10.0004 4.58556 10.9365 3.14358 11.9986 2.25C13.0608 3.14358 13.9969 4.58556 14.6938 6.27003C15.4761 8.16121 15.9147 10.2571 15.9147 11.9993C15.9147 12.26 15.9049 12.5287 15.8856 12.8033C14.694 13.3321 13.3792 13.625 11.9986 13.625C10.618 13.625 9.30329 13.3321 8.11167 12.8033C8.09234 12.5287 8.08252 12.26 8.08252 11.9993C8.08252 10.2571 8.52111 8.16121 9.3035 6.27003Z" fill="green"></path>
                            <path d="M11.9986 15.125C13.2807 15.125 14.5119 14.907 15.6587 14.5059C15.4523 15.5799 15.1253 16.6854 14.6938 17.7287C13.9969 19.4131 13.0608 20.8551 11.9986 21.7487C10.9365 20.8551 10.0004 19.4131 9.3035 17.7287C8.87192 16.6854 8.54495 15.5799 8.3385 14.5059C9.48539 14.907 10.7166 15.125 11.9986 15.125Z" fill="green"></path>
                        </svg>